<svg width="64pt" height="64pt" viewBox="0 0 22.578 22.578" xmlns="http://www.w3.org/2000/svg"><g stroke-width=".795" color="#000"><path style="-inkscape-stroke:none" d="M7.385 9.58a.333.333 0 00-.314.223l-.55 1.577a.333.333 0 00.127.386l1.948 1.331a.333.333 0 00.376 0l1.95-1.331a.333.333 0 00.125-.386l-.55-1.577a.333.333 0 00-.312-.223z" fill="#ffa185"/><path style="-inkscape-stroke:none" d="M15.881 9.963a.333.333 0 00-.295.125s-.826 1.157-1.233 2.56c-.41-.33-.913-.72-.913-.72a.333.333 0 00-.052-.025l-2.18-.86a.333.333 0 00-.247 0s-.367.148-.83.295c-.463.148-1.034.288-1.346.288-.311 0-.885-.14-1.348-.288a13.004 13.004 0 01-.828-.294.333.333 0 00-.245 0l-2.184.86a.333.333 0 00-.05.024s-.378.228-.778.545c-.396.315-.838.678-.965 1.194-.01.027-.283.739-.233 1.712.047.943.47 2.126 1.64 3.095v2.136c0 .548.45.998.998.998h7.985c.547 0 1-.45 1-.998v-4.435c.19-.017.404-.023.89-.138.66-.156 1.454-.428 1.97-1.007a.333.333 0 00.05-.074s.954-1.94.592-4.593a.333.333 0 00-.297-.287z" fill="#d0e2ee"/><path style="-inkscape-stroke:none" d="M4.691 16.828l-.897 2.06v.371l3.792.658 1.133.16a.91.91 0 001.03-.894v-.845z" fill="#a8c2e1"/><path style="-inkscape-stroke:none" d="M5.072 15.958a.333.333 0 00-.381.204l-.808 2.061a.333.333 0 00.255.45l3.41.574a.333.333 0 00.388-.329v-1.645a.333.333 0 00-.07-.202c-.174-.229-.418-.35-.702-.476a7.999 7.999 0 00-.916-.332c-.617-.187-1.176-.305-1.176-.305z" fill="#d0e2ee"/><path style="-inkscape-stroke:none" d="M10.893 6.585l-.266.069a.333.333 0 00-.245.353l.137 1.445a.333.333 0 00.393.297c.167-.031.345-.065.53-.123.559-.152.895-.735.745-1.294a1.06 1.06 0 00-1.294-.747zm-4.215 0a1.063 1.063 0 00-1.297.747c-.15.56.19 1.143.75 1.294 0 0-.002.003 0 .003.183.057.36.09.525.12a.333.333 0 00.393-.297l.137-1.445a.333.333 0 00-.245-.353z" fill="#ffa185"/><path style="-inkscape-stroke:none" d="M7.334 6.133a.333.333 0 00-.568.096c-.279.745-.473 1.554-.36 2.392.087.655.302 1.168.768 1.55.198.162.44.307.707.422.637.305 1.24.198 1.774.003l.017-.008a3.59 3.59 0 00.712-.41c.503-.38.688-.885.779-1.557l.002-.017c.064-.775-.041-1.652-.368-2.393a.333.333 0 00-.258-.196z" fill="#ffccbc"/><path style="-inkscape-stroke:none" d="M8.338.976c-.642-.051-1.369.237-2.134.835-.208-.026-.431-.042-.66.059a.333.333 0 00-.023.013c-.777.415-1.046 1.189-.85 1.822.197.633.815 1.132 1.604 1.132a.333.333 0 00.015 0l.022-.002c.397.647.432 1.48.432 1.48a.333.333 0 00.076.244s.06.065.136.12c.076.056.186.122.338.185.305.124.777.233 1.491.233.715 0 1.184-.11 1.489-.233.152-.063.262-.129.339-.185a.987.987 0 00.135-.12.333.333 0 00.051-.088c.326-.804.192-1.549.158-1.798.316-.068.645-.135.923-.327a1.43 1.43 0 00.629-1.186c0-.254-.066-.6-.248-.96s-.5-.732-.992-.887a.333.333 0 00-.02-.005c-.53-.13-.929.105-1.297.358-.46-.323-.976-.64-1.614-.69z" fill="#d0e2ee"/><path style="-inkscape-stroke:none" d="M15.44 8.632a.333.333 0 00-.332.331v.924c0 .405.333.742.739.742h1.1c.146 0 .343-.01.543-.042.2-.033.41-.08.597-.24.379-.327.68-.835.68-1.384a.333.333 0 00-.334-.331z" fill="#ffccbc"/><path style="-inkscape-stroke:none" d="M16.77 5.638a3.332 3.332 0 00-3.328 3.325.333.333 0 00.334.334h5.988a.333.333 0 00.334-.334 3.332 3.332 0 00-3.328-3.325z" fill="#7d8e9e"/><path style="-inkscape-stroke:none" d="M8.719 16.779l-1.162.164a.333.333 0 00-.287.33v1.645a.333.333 0 00.287.33l1.162.164a.909.909 0 001.03-.894v-.845a.909.909 0 00-1.03-.894z" fill="#ffccbc"/><path style="-inkscape-stroke:none" d="M8.144.978c-.607-.004-1.277.23-1.99.795a1.231 1.231 0 00-.611.098.33.33 0 00-.022.011c-.777.416-1.046 1.19-.85 1.823.197.634.816 1.132 1.604 1.132h.012s.033 0 .087-.004c.377.579.376 1.292.371 1.449a9.913 9.913 0 00-.107.291 1.065 1.065 0 00-1.257.76c-.15.56.19 1.143.75 1.294.098.03.193.054.286.075.082.529.252.964.582 1.308l-.363 1.04a2.17 2.17 0 01-.447-.242.333.333 0 00-.467.061.333.333 0 00.017.42c-.906.263-1.752.684-2.387 1.184-1 .783-1.229 1.835-1.166 2.901.065.934.447 2.113 1.608 3.077v2.16c0 .547.45.997.998.997h7.985c.547 0 1-.45 1-.997v-4.43c.197-.03.42-.069.655-.12.77-.166 1.67-.432 2.205-1.031a.332.332 0 00.05-.074s.895-1.82.622-4.345c.059-.006.12-.014.181-.024.2-.034.41-.08.597-.24.3-.26.552-.633.643-1.05h1.369a.333.333 0 000-.665h-.017a3.334 3.334 0 00-2.98-2.978v-.35a.334.334 0 00-.666 0v.35a3.334 3.334 0 00-2.977 2.978h-.017a.333.333 0 000 .665h1.666v.59c0 .21.09.403.234.538-.29.422-.765 1.2-1.048 2.11l-.078-.062c-.4-.318-.777-.545-.777-.545a.295.295 0 00-.05-.025l-1.557-.613a.333.333 0 00-.205-.549.333.333 0 00-.246.067 2.168 2.168 0 01-.449.243l-.36-1.034c.346-.342.497-.773.579-1.315.094-.02.19-.045.29-.075.56-.15.896-.734.746-1.294a1.063 1.063 0 00-1.254-.76 10.031 10.031 0 00-.085-.232c.214-.621.195-1.29.164-1.641.33-.079.665-.202.946-.42.316-.245.55-.64.55-1.12 0-.254-.065-.601-.247-.961-.183-.36-.5-.731-.993-.887a1.788 1.788 0 00-1.424.278c-.428-.293-.922-.548-1.503-.602a2.316 2.316 0 00-.197-.01zm-.055.666c.064-.001.128.001.19.007.386.036.747.202 1.096.426a1.215 1.215 0 00-.187.461.333.333 0 00.656.116c.223-.552.819-.793 1.235-.698.276.091.462.294.588.542.127.253.176.548.176.661a.673.673 0 01-.292.595c-.191.148-.485.257-.793.322-.617.128-1.258.083-1.258.083a.333.333 0 00-.051.663s.392.032.896-.015c.019.324.022.894-.135 1.341-.457.235-1.034.281-1.425.283-.473-.001-.947-.064-1.37-.248 0-.293-.041-.881-.334-1.458.386-.092.849-.26 1.233-.565a.333.333 0 00-.413-.522c-.568.453-1.618.533-1.63.534-.51-.003-.855-.311-.964-.664-.108-.35-.017-.732.519-1.026.233-.095.504-.02.754.125.254.149.434.334.434.334a.333.333 0 00.482-.459s-.232-.243-.573-.444c.443-.284.823-.39 1.166-.394zm8.681 4.66a2.656 2.656 0 012.642 2.328h-5.284a2.655 2.655 0 012.642-2.329zm-5.57 1.7v-.1a.333.333 0 00-.666.016c.003.158 0 .377-.03.611-.117.84-.444 1.107-1.085 1.44-.507.125-.911.18-1.267.016-.678-.27-1.01-.913-1.086-1.454a4.299 4.299 0 01-.032-.613.333.333 0 00-.666-.015v.098l-.066-.017a.385.385 0 01-.277-.482.383.383 0 01.479-.277h.002l.263.07a.333.333 0 00.4-.208c.026-.085.053-.168.08-.246l.045.02c.305.125.777.234 1.491.234.522-.023 1.071-.066 1.536-.254l.07.22c.048.177.23.283.408.235l.266-.071a.383.383 0 01.479.277.386.386 0 01-.278.482zm4.57 1.293h2.252a1.538 1.538 0 01-.37.546.863.863 0 01-.272.088c-.143.024-.31.032-.433.032h-1.1c-.046 0-.076-.03-.076-.076zm-5.76 1.123l.297.856c-.499.154-.995.254-1.523.345-.575-.096-1-.195-1.522-.344l.295-.845c.101.058.209.111.32.16h.002c.637.306 1.242.198 1.776.002zm6.003.209h.627c.266 2.3-.49 3.891-.53 3.974-.342.362-1.115.656-1.818.808-.715.154-1.329.194-1.329.194a.332.332 0 00.042.663l.106-.008v4.35a.328.328 0 01-.334.332h-.332v-4.887c0-1.244-.368-2.314-.776-3.118a.332.332 0 00-.447-.145.333.333 0 00-.147.447c.373.736.704 1.703.704 2.816v4.887H4.792a.326.326 0 01-.332-.331v-1.884l3.087.52v-.002l.01.002 1.162.165a.91.91 0 001.03-.894v-.845a.909.909 0 00-1.03-.894l-.994.14c-.156-.137-.347-.23-.56-.324a10.123 10.123 0 00-1.398-.468c.275-.172.62-.337.94-.35a.333.333 0 10-.027-.664c-.42.017-.805.164-1.117.337.015-.174.021-.346.024-.51.011-.614-.06-1.136-.06-1.136a.333.333 0 00-.376-.282.333.333 0 00-.286.376s.066.476.057 1.029c-.01.553-.135 1.165-.332 1.375a.333.333 0 10.486.454c.03-.03.056-.062.082-.094a12.22 12.22 0 011.734.54c.164.073.3.156.378.213v1.109l-2.913-.49c-1.115-.863-1.448-1.876-1.506-2.707-.09-1.1.149-1.713.917-2.333.774-.657 1.778-.914 2.708-1.28a8.07 8.07 0 001.115.344c.156.038.305.071.442.1a2.001 2.001 0 00-.252.249c-.156.185-.285.422-.285.702a.333.333 0 10.665 0c0-.361.433-.552.744-.733.386.18.863.383.863.794a.333.333 0 10.665 0c0-.28-.127-.517-.282-.702a2.173 2.173 0 00-.393-.358l.218-.052a8.154 8.154 0 001.117-.343l2.023.795c.02.013.334.205.685.484.362.287.708.696.741.837a.333.333 0 00.649-.152 1.496 1.496 0 00-.347-.64c.264-1.074.923-2.066 1.169-2.41zm-5.23 2.993a.333.333 0 10-.003.666.333.333 0 00.002-.666zm.333 1.664a.333.333 0 10-.002.666.333.333 0 00.002-.666zm0 1.664a.333.333 0 10-.002.665.333.333 0 00.002-.665zm-2.263.484a.23.23 0 01.23.239v.845a.23.23 0 01-.27.235l-.877-.124v-1.067zm2.263 1.179a.333.333 0 10-.002.665.333.333 0 00.002-.665z"/></g></svg>