<svg xmlns="http://www.w3.org/2000/svg" width="64pt" height="64pt" viewBox="0 0 22.578 22.578"><g color="#000" font-weight="400" font-family="sans-serif"><path style="line-height:normal;font-variant-ligatures:normal;font-variant-position:normal;font-variant-caps:normal;font-variant-numeric:normal;font-variant-alternates:normal;font-variant-east-asian:normal;font-feature-settings:normal;font-variation-settings:normal;text-indent:0;text-align:start;text-decoration-line:none;text-decoration-style:solid;text-decoration-color:#000;text-transform:none;text-orientation:mixed;white-space:normal;shape-padding:0;shape-margin:0;inline-size:0;isolation:auto;mix-blend-mode:normal;solid-color:#000;solid-opacity:1" d="M2.057 13.983a.96.96 0 00-1.087.944v1.426a1.57 1.57 0 001.345 1.55l17.852 2.55a1.267 1.267 0 001.44-1.247v-1.428a1.16 1.16 0 00-.993-1.143z" overflow="visible" fill="#ffccbc"/><path d="M1.847 13.976v.001a.962.962 0 00-.877.95v.388c5.132.61 10.604 1.365 15.89 2.116 1.024.145 1.854 1.103 1.854 2.137v.677l1.453.208a1.269 1.269 0 001.44-1.249v-1.426a1.16 1.16 0 00-.992-1.143l-1.901-.272-16.658-2.38a.977.977 0 00-.21-.006z" style="line-height:normal;font-variant-ligatures:normal;font-variant-position:normal;font-variant-caps:normal;font-variant-numeric:normal;font-variant-alternates:normal;font-variant-east-asian:normal;font-feature-settings:normal;font-variation-settings:normal;text-indent:0;text-align:start;text-decoration-line:none;text-decoration-style:solid;text-decoration-color:#000;text-transform:none;text-orientation:mixed;white-space:normal;shape-padding:0;shape-margin:0;inline-size:0;isolation:auto;mix-blend-mode:normal;solid-color:#000;solid-opacity:1" overflow="visible" fill="#e6af99"/><path d="M2.057 10.773a.96.96 0 00-1.087.944v1.426a1.57 1.57 0 001.345 1.55l17.852 2.55a1.267 1.267 0 001.44-1.247v-1.428a1.16 1.16 0 00-.993-1.143z" style="line-height:normal;font-variant-ligatures:normal;font-variant-position:normal;font-variant-caps:normal;font-variant-numeric:normal;font-variant-alternates:normal;font-variant-east-asian:normal;font-feature-settings:normal;font-variation-settings:normal;text-indent:0;text-align:start;text-decoration-line:none;text-decoration-style:solid;text-decoration-color:#000;text-transform:none;text-orientation:mixed;white-space:normal;shape-padding:0;shape-margin:0;inline-size:0;isolation:auto;mix-blend-mode:normal;solid-color:#000;solid-opacity:1" overflow="visible" fill="#ffa185"/><path d="M1.847 10.766v.001a.962.962 0 00-.877.95v.249c4.903.708 10.74 1.507 16.172 2.286.868.125 1.572.938 1.572 1.815v.968l1.453.208a1.267 1.267 0 001.44-1.247v-1.428a1.16 1.16 0 00-.992-1.143l-1.901-.272-16.658-2.38a.977.977 0 00-.21-.006z" style="line-height:normal;font-variant-ligatures:normal;font-variant-position:normal;font-variant-caps:normal;font-variant-numeric:normal;font-variant-alternates:normal;font-variant-east-asian:normal;font-feature-settings:normal;font-variation-settings:normal;text-indent:0;text-align:start;text-decoration-line:none;text-decoration-style:solid;text-decoration-color:#000;text-transform:none;text-orientation:mixed;white-space:normal;shape-padding:0;shape-margin:0;inline-size:0;isolation:auto;mix-blend-mode:normal;solid-color:#000;solid-opacity:1" overflow="visible" fill="#e59079"/><path d="M2.057 7.565a.958.958 0 00-1.087.942v1.425a1.57 1.57 0 001.345 1.551l17.852 2.552a1.269 1.269 0 001.44-1.249v-1.428a1.16 1.16 0 00-.993-1.143L2.057 7.565z" style="line-height:normal;font-variant-ligatures:normal;font-variant-position:normal;font-variant-caps:normal;font-variant-numeric:normal;font-variant-alternates:normal;font-variant-east-asian:normal;font-feature-settings:normal;font-variation-settings:normal;text-indent:0;text-align:start;text-decoration-line:none;text-decoration-style:solid;text-decoration-color:#000;text-transform:none;text-orientation:mixed;white-space:normal;shape-padding:0;shape-margin:0;inline-size:0;isolation:auto;mix-blend-mode:normal;solid-color:#000;solid-opacity:1" overflow="visible" fill="#ffccbc"/><path d="M6.872 2.34a.333.333 0 00.211.42c.44.147.615.394.725.725.11.331.116.742.116 1.099a.333.333 0 00.666 0c0-.357.007-.837-.15-1.308a1.783 1.783 0 00-1.148-1.148c-.211-.056-.357.043-.42.212z" style="line-height:normal;font-variant-ligatures:normal;font-variant-position:normal;font-variant-caps:normal;font-variant-numeric:normal;font-variant-alternates:normal;font-variant-east-asian:normal;font-feature-settings:normal;font-variation-settings:normal;text-indent:0;text-align:start;text-decoration-line:none;text-decoration-style:solid;text-decoration-color:#000;text-transform:none;text-orientation:mixed;white-space:normal;shape-padding:0;shape-margin:0;inline-size:0;isolation:auto;mix-blend-mode:normal;solid-color:#000;solid-opacity:1" overflow="visible" fill="#349951"/><path d="M1.847 7.559a.96.96 0 00-.877.947v.391a806.729 806.729 0 0115.84 2.107c1.052.15 1.904 1.132 1.904 2.194v.63l1.453.207c.754.108 1.44-.487 1.44-.916v-1.76a1.16 1.16 0 00-.992-1.144l-.817-.117a3139.504 3139.504 0 00-17.951-2.54z" style="line-height:normal;font-variant-ligatures:normal;font-variant-position:normal;font-variant-caps:normal;font-variant-numeric:normal;font-variant-alternates:normal;font-variant-east-asian:normal;font-feature-settings:normal;font-variation-settings:normal;text-indent:0;text-align:start;text-decoration-line:none;text-decoration-style:solid;text-decoration-color:#000;text-transform:none;text-orientation:mixed;white-space:normal;shape-padding:0;shape-margin:0;inline-size:0;isolation:auto;mix-blend-mode:normal;solid-color:#000;solid-opacity:1" overflow="visible" fill="#e6af99"/><path d="M6.196 4.96c-.956.255-2.776.964-4.506 2.15a.884.884 0 00-.263.261c-.204.41-.024.738.529.85l1.511.217v1.495c0 .77.633 1.403 1.404 1.403.34 0 .627-.16.87-.364.163.595.625 1.077 1.268 1.077a1.41 1.41 0 001.404-1.404V9.146l6.108.87v1.522c0 .77.633 1.403 1.404 1.403a1.41 1.41 0 001.403-1.403v-1.119l3.2.457c.24.035.47-.119.551-.312a.535.535 0 00-.162-.612l-7.32-5.378a.334.334 0 00-.15-.064c-1.374-.227-2.694-.325-3.355-.256z" style="line-height:normal;font-variant-ligatures:normal;font-variant-position:normal;font-variant-caps:normal;font-variant-numeric:normal;font-variant-alternates:normal;font-variant-east-asian:normal;font-feature-settings:normal;font-variation-settings:normal;text-indent:0;text-align:start;text-decoration-line:none;text-decoration-style:solid;text-decoration-color:#000;text-transform:none;text-orientation:mixed;white-space:normal;shape-padding:0;shape-margin:0;inline-size:0;isolation:auto;mix-blend-mode:normal;solid-color:#000;solid-opacity:1" overflow="visible" fill="#df2a72"/><path d="M10.926 4.24c-3.531.023-6.23 1.379-8.888 2.87-.328.204-.387.538-.328.69 2.265-1.55 4.42-1.922 7.05-2.415.661-.07 1.981-.035 3.355.192.055.008.106.03.15.063l6.456 4.978 1.807.258c.24.034.47-.119.55-.312a.535.535 0 00-.161-.612l-7.32-5.443a.334.334 0 00-.15-.063 15.066 15.066 0 00-2.52-.205z" style="line-height:normal;font-variant-ligatures:normal;font-variant-position:normal;font-variant-caps:normal;font-variant-numeric:normal;font-variant-alternates:normal;font-variant-east-asian:normal;font-feature-settings:normal;font-variation-settings:normal;text-indent:0;text-align:start;text-decoration-line:none;text-decoration-style:solid;text-decoration-color:#000;text-transform:none;text-orientation:mixed;white-space:normal;shape-padding:0;shape-margin:0;inline-size:0;isolation:auto;mix-blend-mode:normal;solid-color:#000;solid-opacity:1" overflow="visible" fill="#c42566"/><path d="M8.457 3.63c-.878 0-1.617.678-1.617 1.534S7.58 6.7 8.457 6.7c.878 0 1.618-.68 1.618-1.536S9.335 3.63 8.457 3.63z" style="line-height:normal;font-variant-ligatures:normal;font-variant-position:normal;font-variant-caps:normal;font-variant-numeric:normal;font-variant-alternates:normal;font-variant-east-asian:normal;font-feature-settings:normal;font-variation-settings:normal;text-indent:0;text-align:start;text-decoration-line:none;text-decoration-style:solid;text-decoration-color:#000;text-transform:none;text-orientation:mixed;white-space:normal;shape-padding:0;shape-margin:0;inline-size:0;isolation:auto;mix-blend-mode:normal;solid-color:#000;solid-opacity:1" overflow="visible" fill="#a60f0c"/><path d="M8.457 3.63a1.63 1.63 0 00-1.45.868c.234-.125.5-.202.784-.202.878 0 1.617.677 1.617 1.534 0 .241-.064.466-.168.668.491-.262.834-.755.834-1.334 0-.857-.74-1.534-1.617-1.534z" style="line-height:normal;font-variant-ligatures:normal;font-variant-position:normal;font-variant-caps:normal;font-variant-numeric:normal;font-variant-alternates:normal;font-variant-east-asian:normal;font-feature-settings:normal;font-variation-settings:normal;text-indent:0;text-align:start;text-decoration-line:none;text-decoration-style:solid;text-decoration-color:#000;text-transform:none;text-orientation:mixed;white-space:normal;shape-padding:0;shape-margin:0;inline-size:0;isolation:auto;mix-blend-mode:normal;solid-color:#000;solid-opacity:1" overflow="visible" fill="#940f0c"/><path d="M18.424 18.208a.333.333 0 00-.183.054c.29.372.473.83.473 1.306v.677l.038.005.004-1.708a.333.333 0 00-.332-.334z" style="line-height:normal;font-variant-ligatures:normal;font-variant-position:normal;font-variant-caps:normal;font-variant-numeric:normal;font-variant-alternates:normal;font-variant-east-asian:normal;font-feature-settings:normal;font-variation-settings:normal;text-indent:0;text-align:start;text-decoration-line:none;text-decoration-style:solid;text-decoration-color:#000;text-transform:none;text-orientation:mixed;white-space:normal;shape-padding:0;shape-margin:0;inline-size:0;isolation:auto;mix-blend-mode:normal;solid-color:#000;solid-opacity:1" overflow="visible" fill="#cc9b86"/><path style="line-height:normal;font-variant-ligatures:normal;font-variant-position:normal;font-variant-caps:normal;font-variant-numeric:normal;font-variant-alternates:normal;font-variant-east-asian:normal;font-feature-settings:normal;font-variation-settings:normal;text-indent:0;text-align:start;text-decoration-line:none;text-decoration-style:solid;text-decoration-color:#000;text-transform:none;text-orientation:mixed;white-space:normal;shape-padding:0;shape-margin:0;inline-size:0;isolation:auto;mix-blend-mode:normal;solid-color:#000;solid-opacity:1" d="M6.871 2.34a.333.333 0 00.212.42c.502.22.678.535.788.978a1.586 1.586 0 00-.914.861C5.13 5.11 3.367 5.96 1.69 7.111a.882.882 0 00-.263.26.548.548 0 00-.076.385.943.943 0 00-.38.75v1.427c0 .39.144.75.386 1.027a.948.948 0 00-.387.757v1.426c0 .39.145.75.386 1.027a.945.945 0 00-.386.755v1.428c0 .777.575 1.438 1.345 1.548l17.852 2.552a1.269 1.269 0 001.44-1.25v-1.425c0-.344-.156-.656-.402-.87.244-.228.403-.55.403-.912v-1.428c0-.344-.156-.656-.402-.87.243-.229.402-.55.402-.912v-1.428c0-.385-.196-.73-.495-.94a.532.532 0 00-.196-.466l-7.32-5.644a.333.333 0 00-.15-.063 14.835 14.835 0 00-3.824-.137 1.653 1.653 0 00-1.092-.47c-.137-.7-.64-1.356-1.239-1.51a.35.35 0 00-.42.212zm1.717 1.968c.474.06.82.424.82.856 0 .471-.41.87-.951.87-.541 0-.95-.399-.95-.87-.003-.306.17-.604.413-.718-.022.285.107.46.338.47.183 0 .331-.15.332-.333zm6.306 5.089L8.128 8.43c-.239-.028-.38.156-.381.358v1.857a.734.734 0 01-.738.738.733.733 0 01-.737-.738V9.576c-.01-.434-.656-.434-.666 0 0 .728-.28 1.08-.735 1.093a.732.732 0 01-.737-.736V8.169c.006-.192-.12-.318-.318-.353l-1.594-.229c1.49-1.003 3.033-1.776 4.627-2.26.086.777.786 1.373 1.608 1.373.878 0 1.617-.68 1.617-1.536 0-.146-.028-.284-.068-.417.451-.031.905-.047 1.365-.033.623.02 1.255.08 1.901.184l6.798 5.24-3.03-.434c-.187-.019-.37.112-.378.353v1.48a.733.733 0 01-.738.738.732.732 0 01-.737-.737V9.79c.004-.134-.042-.36-.293-.393zm-3.013-3.891l-.356.713a.333.333 0 10.597.297l.357-.713a.333.333 0 00-.15-.448c-.208-.083-.374.006-.448.15zm1.576.562a.333.333 0 00-.148.448l.357.712a.333.333 0 10.595-.297l-.357-.712a.36.36 0 00-.447-.15zM9.15 7.08a.357.357 0 10-.003.713.357.357 0 00.003-.713zm-4.222.387a.333.333 0 00.15.445l.712.356a.333.333 0 10.298-.595l-.713-.356c-.207-.084-.362.01-.447.15zm6.42.177a.333.333 0 00.147.447l.716.357a.333.333 0 00.297-.595l-.713-.357c-.206-.089-.362-.003-.447.148zm3.151.149a.357.357 0 10-.002.713.357.357 0 00.002-.713zm1.784.355a.357.357 0 10-.004.713.357.357 0 00.004-.713zm4.238 5.936c.243.035.42.238.42.484v1.428c0 .368-.316.64-.68.588L2.396 14.032a.898.898 0 01-.76-.89v-1.425c.233-.438.584-.248 1.035-.182a.333.333 0 10.096-.659c-.77-.05-1.117-.458-1.13-.943V8.506c0-.18.148-.307.326-.282l1.505.215v1.494c0 .77.632 1.403 1.403 1.403.34 0 .627-.161.87-.364.163.594.625 1.077 1.268 1.077a1.41 1.41 0 001.404-1.404v-1.5l6.108.873v1.52c0 .77.632 1.403 1.403 1.403a1.41 1.41 0 001.404-1.403v-1.119l3.2.457c.38.053.426.3.413.482v1.428c0 .368-.316.64-.68.588l-2.857-.408a.333.333 0 10-.093.66c1.07.152 2.14.31 3.21.458zM8.639 12.388l5.442.777a.333.333 0 00.093-.659l-5.441-.78c-.224-.003-.356.132-.377.283-.018.2.088.345.283.379zm-5.906.069a.333.333 0 10.002.666l1.074-.003c.176 0 .35.04.507.118l.808.406c.27.135.582.169.875.095l.755-.189a.602.602 0 01.415.044l.814.406c.271.135.584.167.877.093l.74-.187a.6.6 0 01.415.044l.824.409c.271.134.582.164.875.09l.743-.186a.607.607 0 01.417.044l.816.406c.272.134.582.167.875.093l.73-.184a.601.601 0 01.416.044l.815.403c.271.134.582.168.876.096l.762-.19a.649.649 0 01.43.042l1.109.516a.333.333 0 00.442-.16.333.333 0 00-.163-.442l-1.108-.518a1.311 1.311 0 00-.87-.084l-.765.19a.601.601 0 01-.415-.045l-.816-.405a1.266 1.266 0 00-.875-.094l-.732.187a.601.601 0 01-.416-.044l-.816-.406a1.27 1.27 0 00-.875-.093l-.742.186a.61.61 0 01-.418-.044l-.823-.407a1.274 1.274 0 00-.876-.094l-.74.19a.602.602 0 01-.415-.048L7.467 13a1.272 1.272 0 00-.875-.096l-.755.19a.6.6 0 01-.415-.047l-.807-.403a1.798 1.798 0 00-.806-.189zm-.77 2.185c6.442.923 13.036 1.863 18.558 2.652.243.035.42.238.42.484v1.426a.59.59 0 01-.68.59l-1.508-.216.003-1.035a.333.333 0 10-.666-.003l-.003.943-1.473-.21v-1.035a.333.333 0 10-.665-.002l-.002.941-1.476-.211.004-1.033a.333.333 0 10-.667-.002l-.003.94-1.47-.21v-1.035a.333.333 0 10-.665-.002l-.002.941-1.474-.21.003-1.034a.333.333 0 10-.666-.002l-.004.94-1.473-.21.002-1.033a.333.333 0 00-.331-.334.333.333 0 00-.332.332l-.004.94-1.477-.211.003-1.034a.333.333 0 10-.666-.002l-.002.94-1.474-.21.004-1.033a.333.333 0 10-.666-.002l-.004.94-.696-.1a.896.896 0 01-.775-.89v-1.427c.011-.154.07-.32.327-.283z" overflow="visible"/></g></svg>