<svg id="Layer_1" data-name="Layer 1" xmlns="http://www.w3.org/2000/svg" viewBox="0 0 64 64"><defs><style>.cls-2{fill:#fdd870}.cls-7{fill:#1e1814}</style></defs><path d="M34 62h-9v-7l5.59 5.59A4.83 4.83 0 0034 62zm18-16v12a4 4 0 01-4 4H34a4.83 4.83 0 003.41-1.41zM31.9 17.76a4 4 0 10-5.66-5.66l-.1.11a1.63 1.63 0 00-.17.2 2.3 2.3 0 000-.26V12a4 4 0 00-1-2.64V2H48a4 4 0 014 4v16l-2.59-2.59A3.86 3.86 0 0049 19a4.79 4.79 0 00-5.9 0h-8.46A4 4 0 0032 18h-.15a2.3 2.3 0 00-.26 0 1.63 1.63 0 00.2-.17zM18 31.85V32a4 4 0 001 2.64v8.42A4.79 4.79 0 0019 49v13H6a4 4 0 01-4-4V25h7.36A4 4 0 0012 26h.15a2.3 2.3 0 00.26 0 1.63 1.63 0 00-.2.17l-.11.1a4 4 0 105.66 5.66l.1-.11a1.63 1.63 0 00.17-.2 2.3 2.3 0 00-.03.23zm1-22.49A4 4 0 0018 12v.15a2.3 2.3 0 000 .26 1.63 1.63 0 00-.17-.2l-.1-.11a4 4 0 00-5.66 5.66l.11.1a1.63 1.63 0 00.2.17 2.3 2.3 0 00-.26 0H12a4 4 0 00-2.64 1H2V6a4 4 0 014-4h13z" fill="#dfb38b"/><path class="cls-2" d="M36 22a4 4 0 00-1.36-3h8.42a3.63 3.63 0 00-.47.41l-9.52 9.52a4 4 0 00-1.17-2.69l-.11-.1a1.63 1.63 0 00-.2-.17 2.3 2.3 0 00.26 0H32A4 4 0 0036 22zM19 62V49a5.08 5.08 0 00.38.43L22 52l3 3v7zm7.24-30.1a4 4 0 002.69 1.17l-9.52 9.52a3.63 3.63 0 00-.41.47v-8.42A4 4 0 0026 32v-.15a2.3 2.3 0 000-.26 1.63 1.63 0 00.17.2zM22 8a4 4 0 00-3 1.36V2h6v7.36A4 4 0 0022 8zM8 22a4 4 0 001.36 3H2v-6h7.36A4 4 0 008 22z"/><path d="M49 19L19 49a4.79 4.79 0 010-5.9 3.63 3.63 0 01.41-.47l9.52-9.52 4.14-4.14 9.52-9.52a3.63 3.63 0 01.47-.41A4.79 4.79 0 0149 19zM30.59 60.59L25 55l-3-3 30-30 8.59 8.59a4.83 4.83 0 010 6.82L52 46 37.41 60.59a4.83 4.83 0 01-6.82 0z" fill="#76cbea"/><path d="M32 26a4 4 0 000-8h-.15a2.3 2.3 0 00-.26 0 1.63 1.63 0 00.2-.17l.11-.1a4 4 0 10-5.66-5.66l-.1.11a1.63 1.63 0 00-.17.2 2.3 2.3 0 000-.26V12a4 4 0 00-8 0v.15a2.3 2.3 0 000 .26 1.63 1.63 0 00-.17-.2l-.1-.11a4 4 0 00-5.66 5.66l.11.1a1.63 1.63 0 00.2.17 2.3 2.3 0 00-.26 0H12a4 4 0 000 8h.15a2.3 2.3 0 00.26 0 1.63 1.63 0 00-.2.17l-.11.1a4 4 0 105.66 5.66l.1-.11a1.63 1.63 0 00.17-.2 2.3 2.3 0 000 .26V32a4 4 0 008 0v-.15a2.3 2.3 0 000-.26 1.63 1.63 0 00.17.2l.1.11a4 4 0 002.69 1.17l4.14-4.14a4 4 0 00-1.17-2.69l-.11-.1a1.63 1.63 0 00-.2-.17 2.3 2.3 0 00.26 0z" fill="#f08070"/><path d="M52 22L22 52l-2.59-2.59A5.08 5.08 0 0119 49l30-30a3.86 3.86 0 01.44.38z" fill="#838f9a"/><path d="M22 14a8 8 0 11-3.12.63A8 8 0 0122 14z" fill="#ffeba7"/><path class="cls-2" transform="rotate(-45 50.998 37.006)" d="M43.93 34.17h14.14v5.66H43.93z"/><circle class="cls-2" cx="22" cy="22" r="4"/><path class="cls-7" d="M63 34a5.85 5.85 0 00-1.71-4.12L53 21.59V6a5 5 0 00-5-5H6a5 5 0 00-5 5v52a5 5 0 005 5h42a5 5 0 005-5V46.41l8.29-8.29A5.85 5.85 0 0063 34zM29.59 61H26v-3.59zM24 61h-4v-9.59l4 4zM9 22a3 3 0 013-3h.34l1.15.07a8.83 8.83 0 000 5.8l-1.15.13H12a3 3 0 01-3-3zm-1.57 2H3v-4h4.43a4.87 4.87 0 000 4zm11.82 23.33A3.74 3.74 0 0119 46a3.88 3.88 0 011.12-2.71l23.17-23.17A3.88 3.88 0 0146 19a3.74 3.74 0 011.33.25zM19 31.84v-.18l.07-1.15a8.83 8.83 0 005.8 0l.13 1.15V32a3 3 0 01-6 0zM15 22a7 7 0 117 7 7 7 0 01-7-7zm4-9.66V12a3 3 0 016 0v.34l-.07 1.15a8.83 8.83 0 00-5.8 0zm14.51 14.43a4.77 4.77 0 00.52-.22l-.42.43c-.04-.07-.06-.14-.1-.21zM28.57 32a3 3 0 01-1.57-.81l-.11-.11-.12-.15-.77-.86A9 9 0 0030.07 26l.86.77.16.12.1.11a3 3 0 01.81 1.57zM27 33.61l-.43.42a4.77 4.77 0 00.22-.52zM22 37a5 5 0 002-.45l-4 4v-4a5 5 0 002 .45zm14.55-13a4.86 4.86 0 000-4h4zM35 22a3 3 0 01-3 3h-.34l-1.15-.07a8.83 8.83 0 000-5.8l1.15-.13H32a3 3 0 013 3zm-3.81-4.95l-.11.11-.15.12-.86.77A9 9 0 0026 13.93l.77-.86.12-.16.11-.1a3.06 3.06 0 014.24 0 3 3 0 010 4.24zM24 7.43a4.87 4.87 0 00-4 0V3h4zm-5.95 6.5a9 9 0 00-4.12 4.12l-.86-.77-.15-.12-.11-.11a3 3 0 010-4.24 3.06 3.06 0 014.24 0l.11.11.12.15zM12.81 27l.11-.11.15-.12.86-.77a9 9 0 004.12 4.12l-.77.86-.12.16-.11.1a3.07 3.07 0 01-4.24 0 3 3 0 010-4.24zm7.6 22L49 20.41 50.59 22 22 50.59zM51 6v13.59l-.88-.88A5.85 5.85 0 0046 17a5.91 5.91 0 00-3.26 1H35a5.09 5.09 0 00-1.48-.77 4.92 4.92 0 00.56-2.3 5 5 0 00-5-5 4.92 4.92 0 00-2.3.56A5.09 5.09 0 0026 9V3h22a3 3 0 013 3zM6 3h12v6a5.09 5.09 0 00-.77 1.48 4.92 4.92 0 00-2.3-.56 5 5 0 00-5 5 4.89 4.89 0 00.56 2.3A5.09 5.09 0 009 18H3V6a3 3 0 013-3zM3 58V26h6a5.09 5.09 0 001.48.77 4.92 4.92 0 00-.56 2.3 5 5 0 005 5 4.92 4.92 0 002.3-.56A5.09 5.09 0 0018 35v7.75a5.81 5.81 0 000 6.52V61H6a3 3 0 01-3-3zm48 0a3 3 0 01-3 3h-9.59L51 48.41zm8.88-21.29L36.71 59.88a3.84 3.84 0 01-5.42 0L23.41 52 52 23.41l7.88 7.88a3.84 3.84 0 010 5.42z"/><path class="cls-7" d="M42.59 40L48 45.41 59.41 34 54 28.59zM48 42.59L45.41 40 54 31.41 56.59 34z"/><path class="cls-7" transform="rotate(-45 37.503 54.496)" d="M31.14 53.5h12.73v2H31.14z"/><path class="cls-7" transform="rotate(-45 36.334 49.67)" d="M35.38 48.67h1.9v2h-1.9z"/><path class="cls-7" transform="rotate(-45 30.711 55.289)" d="M29.71 54.29h2v2h-2z"/><path class="cls-7" transform="rotate(-45 33.534 52.47)" d="M32.54 51.46h2v2h-2z"/><path class="cls-7" d="M22 27a5 5 0 10-5-5 5 5 0 005 5zm0-8a3 3 0 11-3 3 3 3 0 013-3z"/></svg>