<svg viewBox="0 0 62 62" xmlns="http://www.w3.org/2000/svg"><path d="M43 1c8.84 0 16 7.16 16 16s-7.16 16-16 16c-4.58 0-8.7-1.92-11.62-5H34c.92 0 1.74-.41 2.28-1.06A11.94 11.94 0 0043 29c3.32 0 6.32-1.34 8.49-3.51S55 20.32 55 17s-1.34-6.32-3.51-8.49A11.962 11.962 0 0043 5c-3.96 0-7.48 1.92-9.66 4.89-.62-1.26-1.41-2.43-2.34-3.47C33.93 3.1 38.22 1 43 1z" fill="#ccd1d9"/><path d="M43 5c3.32 0 6.32 1.34 8.49 3.51S55 13.68 55 17s-1.34 6.32-3.51 8.49A11.962 11.962 0 0143 29c-2.49 0-4.8-.76-6.72-2.06.45-.52.72-1.2.72-1.94v-2c0-1.31-.83-2.42-2-2.82V17c0-2.55-.6-4.97-1.66-7.11C35.52 6.92 39.04 5 43 5z" fill="#69d6f4"/><path d="M43 15c1.1 0 2 .9 2 2 0 .82-.5 1.53-1.21 1.84A2.006 2.006 0 0141 17c0-1.1.9-2 2-2z" fill="#fcd770"/><path d="M7 17c0-6.63 5.37-12 12-12 3.32 0 6.32 1.34 8.49 3.51S31 13.68 31 17h-.34A13.67 13.67 0 0121 13c-1.89 2.52-4.85 4-8 4H7z" fill="#b27946"/><path d="M27.51 41.97l-.84-.18L25 51l-6-4-6 4-1.66-9.14-.2-.03-.65.14A11.987 11.987 0 001 53.7V57h8v4h20v-4h6v-9.93a11.977 11.977 0 00-7.49-5.1z" fill="#fcd770"/><path fill="#ffc729" d="M26.67 41.79L25 51l-6-4 4-6zm-11 .21L19 47l-6 4-1.66-9.14c.54.09 1.09.14 1.66.14h2.67z"/><path fill="#d3a06c" d="M35 39h26v22H35z"/><path fill="#b27946" d="M39 39h6v10h-6z"/><path fill="#f0d0b4" d="M29 57h6v4h-6zM1 57h8v4H1zm16-15c1.1 0 2-.9 2-2 0-.55-.22-1.05-.59-1.41-.36-.37-.86-.59-1.41-.59h-2c-.09 0-.18.01-.26.02a.926.926 0 00-.39-.26l-.86-.33A9.996 9.996 0 017 28.07V17h6c3.15 0 6.11-1.48 8-4a13.67 13.67 0 009.66 4H31v11.07c0 4.17-2.59 7.9-6.49 9.36l-.86.33c-.39.14-.65.52-.65.93V41l-4 6-3.33-5H17z"/><path d="M35 17v3.18c-.31-.12-.65-.18-1-.18h-3v-3c0-3.32-1.34-6.32-3.51-8.49S22.32 5 19 5C12.37 5 7 10.37 7 17v3H4c-.35 0-.69.06-1 .18V17C3 8.16 10.16 1 19 1c4.42 0 8.42 1.79 11.32 4.68.24.24.47.49.68.74.93 1.04 1.72 2.21 2.34 3.47C34.4 12.03 35 14.45 35 17z" fill="#aab2bd"/><path d="M37 23v2c0 .74-.27 1.42-.72 1.94A2.95 2.95 0 0134 28h-3v-8h3c.35 0 .69.06 1 .18 1.17.4 2 1.51 2 2.82zM3 27.82c-1.17-.4-2-1.51-2-2.82v-2c0-1.31.83-2.42 2-2.82.31-.12.65-.18 1-.18h3v8H4c-.35 0-.69-.06-1-.18zM17 38c.55 0 1.05.22 1.41.59.37.36.59.86.59 1.41 0 1.1-.9 2-2 2h-4v-2a2.005 2.005 0 012-2h2z" fill="#aab2bd"/><path d="M48 42h2v2h-2zm4 0h6v2h-6zm-4 4h10v2H48zm0 4h10v2H48zm0 6h2v2h-2zm8 0h2v2h-2zm-4 0h2v2h-2z"/><path d="M34 38v6.332a12.92 12.92 0 00-6.276-3.342L24 40.192l.001-1.499.861-.323c3.711-1.392 6.361-4.702 6.991-8.538C34.942 32.529 38.84 34 43 34c9.374 0 17-7.626 17-17S52.374 0 43 0c-4.511 0-8.812 1.815-11.989 4.981A16.946 16.946 0 0019 0C9.626 0 2 7.626 2 17v2.556C.81 20.25 0 21.526 0 23v2c0 1.474.81 2.75 2 3.444V32c0 4.232 2.406 7.908 5.919 9.747C3.217 43.759 0 48.45 0 53.701V62h62V38H34zm6 2h4v8h-4v-8zm-6 7.393V56h-4v-4h-2v8h-8V48.869l5.711 3.808 1.761-9.686A10.919 10.919 0 0134 47.393zM14 41v-1c0-.551.449-1 1-1h2c.551 0 1 .449 1 1s-.449 1-1 1h-3zm1.132 2l2.481 3.723-3.902 2.601-1.154-6.346c.148.006.294.022.443.022h2.132zm10.386-.438l-1.229 6.761-3.902-2.601 3.068-4.602 2.063.442zm-1.359-6.064l-.86.323A2.006 2.006 0 0022 38.692v2.005l-3 4.5-1.498-2.248A2.997 2.997 0 0020 40c0-1.654-1.346-3-3-3h-1.95a1.94 1.94 0 00-.348-.179l-.862-.324A9.04 9.04 0 018 28.071V18h5c3.073 0 6.024-1.31 8.092-3.55A14.536 14.536 0 0030 17.986v10.085a9.042 9.042 0 01-5.841 8.427zM34.498 10.05A11.04 11.04 0 0142 6.06V8h2V6.051a10.954 10.954 0 016.034 2.501l-1.377 1.377 1.414 1.414 1.377-1.377A10.943 10.943 0 0153.949 16H52v2h1.949a10.954 10.954 0 01-2.501 6.034l-1.377-1.377-1.414 1.414 1.377 1.377A10.943 10.943 0 0144 27.949V26h-2v1.95a10.91 10.91 0 01-4.345-1.338A3.982 3.982 0 0038 25v-2c0-1.474-.81-2.75-2-3.444V17c0-2.477-.545-4.826-1.502-6.95zM36 23v2c0 1.103-.897 2-2 2h-2v-6h2c1.103 0 2 .897 2 2zM14.313 12a8.927 8.927 0 00-5.956 2.266C9.578 9.521 13.88 6 19 6c5.716 0 10.424 4.384 10.948 9.965a12.553 12.553 0 01-8.241-3.672l-.815-.815-.692.922A9.044 9.044 0 0113 16H9.419a6.95 6.95 0 014.894-2H15v-2h-.687zM43 2c8.271 0 15 6.729 15 15s-6.729 15-15 15a14.836 14.836 0 01-8.982-3.002 3.96 3.96 0 002.371-.809A12.927 12.927 0 0043 30c7.168 0 13-5.832 13-13S50.168 4 43 4a13.063 13.063 0 00-9.515 4.147 17.075 17.075 0 00-1.153-1.662A15 15 0 0143 2zM4 17C4 8.729 10.729 2 19 2s15 6.729 15 15v2h-2v-3h-.051C31.436 9.299 25.831 4 19 4S6.564 9.299 6.051 16H6v3H4v-2zm-2 6c0-1.103.897-2 2-2h2v6H4c-1.103 0-2-.897-2-2v-2zm2 9v-3h2.043a11.056 11.056 0 006.603 9.163A2.966 2.966 0 0012 40v.945c-4.494-.499-8-4.32-8-8.945zm6.527 10.989l1.762 9.687L18 48.869V60h-8v-8H8v4H2v-2.299c0-5.094 3.577-9.568 8.527-10.712zM2 58h6v2H2v-2zm28 2v-2h4v2h-4zm30 0H36V40h2v10h8V40h14v20z"/><path d="M19 33a4 4 0 01-3.667-2.4l-1.833.8a6.002 6.002 0 0011 0l-1.833-.8A4 4 0 0119 33zm-.553-3.105l1.105-.553c.478-.239.834-.65 1.003-1.157s.13-1.049-.108-1.527L20 25.764V24h-2v2c0 .155.036.309.105.447l.553 1.105-1.105.553.894 1.79zM25 20c-1.654 0-3 1.346-3 3v2h2v-2c0-.551.449-1 1-1s1 .449 1 1v2h2v-2c0-1.654-1.346-3-3-3zm-11 3v2h2v-2c0-1.654-1.346-3-3-3s-3 1.346-3 3v2h2v-2c0-.551.449-1 1-1s1 .449 1 1zm29-3c.065 0 .126-.015.19-.019l1.891 4.413 1.838-.788-1.89-4.41A2.984 2.984 0 0046 17a2.996 2.996 0 00-2-2.816V12h-2v2.184A2.996 2.996 0 0040 17c0 1.654 1.346 3 3 3zm0-4c.551 0 1 .449 1 1s-.449 1-1 1-1-.449-1-1 .449-1 1-1z"/></svg>